<svg width="7" height="7" viewBox="0 0 7 7" fill="none" xmlns="http://www.w3.org/2000/svg">
<path d="M4.71 0.53002L4.58 0.45002C4.58 0.45002 4.56 0.45002 4.56 0.44002C4.52 0.41002 4.47 0.39002 4.43 0.36002C4.41 0.35002 4.38 0.34002 4.36 0.32002C4.33 0.30002 4.29 0.29002 4.26 0.27002C4.24 0.27002 4.22 0.25002 4.2 0.24002C4.15 0.22002 4.09 0.20002 4.04 0.18002C4.03 0.18002 4.02 0.18002 4.01 0.17002C3.96 0.15002 3.91 0.14002 3.86 0.12002C3.84 0.12002 3.83 0.12002 3.81 0.11002C3.76 0.0900195 3.7 0.0800195 3.64 0.0700195C3.64 0.0700195 3.63 0.0700195 3.62 0.0700195C3.56 0.0600195 3.5 0.0500195 3.43 0.0400195C3.42 0.0400195 3.4 0.0400195 3.39 0.0400195C3.34 0.0400195 3.29 0.0300195 3.24 0.0200195C3.22 0.0200195 3.21 0.0200195 3.19 0.0200195C3.13 0.0200195 3.06 0.0200195 3 0.0200195C2.93 0.0200195 2.86 0.0200195 2.8 0.0200195C2.78 0.0200195 2.76 0.0200195 2.75 0.0200195C2.69 0.0200195 2.62 0.0300195 2.56 0.0400195C2.56 0.0400195 2.55 0.0400195 2.54 0.0400195C2.48 0.0400195 2.42 0.0600195 2.35 0.0800195C2.33 0.0800195 2.31 0.0800195 2.29 0.0900195C2.23 0.10002 2.18 0.12002 2.12 0.14002C2.1 0.14002 2.09 0.15002 2.07 0.16002C2.02 0.18002 1.97 0.19002 1.92 0.21002C1.9 0.21002 1.88 0.23002 1.85 0.24002C1.79 0.26002 1.74 0.29002 1.69 0.31002C1.67 0.31002 1.65 0.33002 1.64 0.34002C1.6 0.36002 1.56 0.38002 1.52 0.41002C1.5 0.42002 1.48 0.43002 1.46 0.44002C1.41 0.47002 1.36 0.50002 1.31 0.54002C1.31 0.54002 1.3 0.54002 1.29 0.55002L1.24 0.59002C0.49 1.12002 0 2.01002 0 3.00002C0 4.66002 1.35 6.00002 3 6.00002C4.65 6.00002 6 4.65002 6 3.00002C6 1.98002 5.48 1.07002 4.7 0.53002H4.71ZM1.51 0.63002C1.51 0.63002 1.58 0.59002 1.61 0.57002C1.63 0.56002 1.65 0.55002 1.67 0.54002C1.72 0.51002 1.76 0.49002 1.81 0.47002C1.83 0.47002 1.85 0.45002 1.87 0.44002C1.91 0.42002 1.94 0.41002 1.98 0.40002C2 0.40002 2.02 0.38002 2.04 0.38002C2.09 0.36002 2.14 0.34002 2.19 0.33002C2.21 0.33002 2.23 0.32002 2.25 0.31002C2.29 0.30002 2.33 0.29002 2.37 0.28002C2.39 0.28002 2.41 0.28002 2.42 0.27002C2.48 0.26002 2.53 0.25002 2.59 0.24002C2.6 0.24002 2.62 0.24002 2.63 0.24002C2.68 0.24002 2.73 0.23002 2.77 0.22002C2.79 0.22002 2.8 0.22002 2.82 0.22002C2.88 0.22002 2.94 0.22002 3 0.22002C3.05 0.22002 3.11 0.22002 3.16 0.22002C3.18 0.22002 3.19 0.22002 3.2 0.22002C3.24 0.22002 3.28 0.22002 3.31 0.23002C3.33 0.23002 3.34 0.23002 3.36 0.23002C3.4 0.23002 3.43 0.23002 3.47 0.25002C3.49 0.25002 3.5 0.25002 3.52 0.25002C3.56 0.25002 3.6 0.27002 3.63 0.27002C3.64 0.27002 3.66 0.27002 3.67 0.27002C3.72 0.28002 3.76 0.29002 3.81 0.31002C3.81 0.31002 3.81 0.31002 3.82 0.31002C3.87 0.33002 3.92 0.34002 3.96 0.36002C3.98 0.36002 4 0.37002 4.02 0.38002C4.05 0.39002 4.07 0.40002 4.1 0.41002C4.12 0.42002 4.15 0.43002 4.17 0.44002C4.19 0.44002 4.21 0.46002 4.23 0.47002C4.25 0.47002 4.26 0.49002 4.28 0.49002C3.9 0.64002 3.66 0.830019 3.39 1.18002C3.35 1.23002 3.33 1.29002 3.33 1.35002C3.31 1.29002 3.27 1.25002 3.23 1.22002C3.14 1.16002 3.02 1.16002 2.86 1.23002H2.83C2.63 1.26002 2.52 1.27002 2.51 1.49002C2.51 1.60002 2.56 1.71002 2.66 1.77002C2.68 1.78002 2.71 1.80002 2.74 1.80002C2.74 1.80002 2.74 1.82002 2.75 1.83002L2.79 1.89002H2.85C2.9 1.87002 2.95 1.87002 2.98 1.87002C2.98 1.91002 2.98 1.96002 3 2.00002C3.03 2.06002 3.08 2.10002 3.14 2.12002C3.2 2.14002 3.2 2.15002 3.21 2.18002C3.24 2.29002 3.32 2.37002 3.41 2.40002C3.5 2.43002 3.6 2.41002 3.69 2.35002C3.74 2.31002 3.77 2.32002 3.88 2.37002C3.95 2.41002 4.04 2.45002 4.16 2.46002C4.18 2.46002 4.19 2.46002 4.19 2.47002C4.27 2.56002 4.33 2.66002 4.39 2.76002C4.48 2.92002 4.57 3.07002 4.72 3.14002C4.84 3.20002 4.71 3.55002 4.64 3.71002C4.63 3.74002 4.62 3.77002 4.61 3.80002C4.46 3.92002 4.36 4.05002 4.27 4.18002C4.19 4.30002 4.11 4.42002 3.98 4.53002C3.78 4.70002 3.62 4.80002 3.43 4.87002C3.4 4.88002 3.38 4.87002 3.37 4.85002C3.37 4.85002 3.35 4.82002 3.37 4.79002C3.57 4.44002 3.8 3.94002 3.5 3.69002C3.21 3.45002 3.1 3.10002 3.22 2.80002C3.27 2.67002 3.22 2.53002 3.09 2.46002C3.08 2.45002 3.07 2.39002 3.07 2.35002C3.06 2.27002 3.04 2.16002 2.98 2.07002C2.95 2.03002 2.91 2.00002 2.88 1.98002C2.76 1.92002 2.64 1.90002 2.53 1.89002C2.44 1.88002 2.35 1.86002 2.27 1.83002C1.94 1.70002 1.7 1.16002 1.53 0.77002C1.51 0.71002 1.48 0.66002 1.46 0.61002C1.47 0.61002 1.48 0.59002 1.5 0.59002L1.51 0.63002ZM3 5.81002C1.46 5.81002 0.2 4.55002 0.2 3.00002C0.2 2.09002 0.63 1.29002 1.31 0.77002C1.33 0.81002 1.35 0.85002 1.36 0.89002C1.56 1.34002 1.8 1.90002 2.21 2.05002C2.32 2.09002 2.42 2.11002 2.52 2.12002C2.62 2.14002 2.72 2.15002 2.81 2.20002C2.81 2.20002 2.83 2.22002 2.84 2.22002C2.88 2.27002 2.89 2.35002 2.89 2.41002C2.9 2.51002 2.92 2.62002 3.02 2.67002C3.05 2.69002 3.08 2.72002 3.07 2.76002C2.91 3.14002 3.05 3.58002 3.4 3.88002C3.49 3.96002 3.54 4.16002 3.22 4.73002C3.17 4.82002 3.18 4.93002 3.25 5.02002C3.3 5.08002 3.37 5.11002 3.44 5.11002C3.47 5.11002 3.5 5.11002 3.53 5.10002C3.75 5.02002 3.93 4.91002 4.15 4.73002C4.3 4.60002 4.39 4.47002 4.48 4.35002C4.57 4.22002 4.65 4.10002 4.79 4.00002C4.81 3.99002 4.83 3.97002 4.83 3.94002C4.84 3.91002 4.85 3.87002 4.87 3.83002C4.97 3.56002 5.13 3.15002 4.85 3.01002C4.75 2.96002 4.68 2.84002 4.6 2.70002C4.54 2.59002 4.47 2.47002 4.37 2.37002C4.33 2.33002 4.28 2.31002 4.22 2.30002C4.13 2.29002 4.07 2.26002 4 2.22002C3.89 2.17002 3.75 2.10002 3.6 2.22002C3.58 2.24002 3.54 2.26002 3.51 2.24002C3.48 2.23002 3.45 2.20002 3.44 2.15002C3.42 2.08002 3.38 2.00002 3.24 1.96002C3.24 1.96002 3.23 1.96002 3.23 1.95002C3.23 1.95002 3.23 1.93002 3.23 1.92002C3.25 1.87002 3.24 1.82002 3.21 1.78002C3.17 1.74002 3.11 1.71002 3.02 1.71002C3.02 1.69002 3.01 1.68002 2.99 1.66002L2.93 1.60002L2.86 1.64002C2.86 1.64002 2.82 1.64002 2.8 1.64002C2.77 1.62002 2.74 1.58002 2.75 1.54002C2.75 1.52002 2.75 1.50002 2.75 1.50002C2.77 1.50002 2.83 1.49002 2.89 1.48002H2.95L2.96 1.47002C3.05 1.43002 3.12 1.42002 3.15 1.44002C3.16 1.44002 3.2 1.49002 3.2 1.65002V1.74002L3.29 1.75002C3.4 1.77002 3.49 1.75002 3.54 1.68002C3.59 1.62002 3.6 1.52002 3.57 1.40002C3.57 1.38002 3.57 1.36002 3.58 1.35002C3.86 0.99002 4.09 0.82002 4.53 0.67002C5.3 1.17002 5.82 2.04002 5.82 3.03002C5.82 4.58002 4.56 5.83002 3.02 5.83002L3 5.81002Z" fill="#F7F6F3"/>
</svg>
