<svg width="4" height="6" viewBox="0 0 4 6" fill="none" xmlns="http://www.w3.org/2000/svg">
<g clip-path="url(#clip0_1184_1491)">
<path d="M1.87141 2.52016C2.24141 2.52016 2.55141 2.22016 2.55141 1.84016C2.55141 1.46016 2.25141 1.16016 1.87141 1.16016C1.49141 1.16016 1.19141 1.46016 1.19141 1.84016C1.19141 2.22016 1.49141 2.52016 1.87141 2.52016ZM1.87141 1.35016C2.14141 1.35016 2.35141 1.57016 2.35141 1.83016C2.35141 2.09016 2.13141 2.31016 1.87141 2.31016C1.61141 2.31016 1.39141 2.09016 1.39141 1.83016C1.39141 1.57016 1.61141 1.35016 1.87141 1.35016Z" fill="#F7F6F3"/>
<path d="M1.86027 5.29977L3.34027 3.15977C3.90027 2.41977 3.82027 1.19977 3.17027 0.549766C2.82027 0.199766 2.35027 0.00976562 1.86027 0.00976562C1.37027 0.00976562 0.890265 0.189766 0.540265 0.539766C-0.0997345 1.18977 -0.189735 2.40977 0.370265 3.14977L1.86027 5.29977ZM0.680265 0.679766C0.990265 0.369766 1.41027 0.189766 1.86027 0.189766C2.31027 0.189766 2.72027 0.359766 3.04027 0.679766C3.63027 1.26977 3.70027 2.36977 3.19027 3.03977L1.86027 4.95977L0.530265 3.03977C0.0202654 2.36977 0.0902655 1.26977 0.680265 0.679766Z" fill="#F7F6F3"/>
</g>
<defs>
<clipPath id="clip0_1184_1491">
<rect width="3.71" height="5.3" fill="white"/>
</clipPath>
</defs>
</svg>
