<svg width="6" height="6" viewBox="0 0 6 6" fill="none" xmlns="http://www.w3.org/2000/svg">
<g clip-path="url(#clip0_1184_1471)">
<path d="M2.51828 0.45C3.18828 0.45 3.26828 0.45 3.53828 0.46C3.78828 0.47 3.91828 0.51 4.00828 0.55C4.12828 0.6 4.20828 0.65 4.29828 0.74C4.38828 0.83 4.43828 0.91 4.48828 1.03C4.51828 1.12 4.56828 1.25 4.57828 1.5C4.58828 1.77 4.58828 1.84 4.58828 2.52C4.58828 3.2 4.58828 3.27 4.57828 3.54C4.56828 3.79 4.52828 3.92 4.48828 4.01C4.43828 4.13 4.38828 4.21 4.29828 4.3C4.20828 4.39 4.12828 4.44 4.00828 4.49C3.91828 4.52 3.78828 4.57 3.53828 4.58C3.26828 4.59 3.19828 4.59 2.51828 4.59C1.83828 4.59 1.76828 4.59 1.49828 4.58C1.24828 4.57 1.11828 4.53 1.02828 4.49C0.908281 4.44 0.828281 4.39 0.738281 4.3C0.648281 4.21 0.598281 4.13 0.548281 4.01C0.518281 3.92 0.468281 3.79 0.458281 3.54C0.448281 3.27 0.448281 3.2 0.448281 2.52C0.448281 1.84 0.448281 1.77 0.458281 1.5C0.468281 1.25 0.508281 1.12 0.548281 1.03C0.598281 0.91 0.648281 0.83 0.738281 0.74C0.828281 0.65 0.908281 0.6 1.02828 0.55C1.11828 0.52 1.24828 0.47 1.49828 0.46C1.76828 0.45 1.83828 0.45 2.51828 0.45ZM2.51828 0C1.83828 0 1.74828 0 1.47828 0.02C1.20828 0.03 1.02828 0.07 0.868281 0.14C0.698281 0.2 0.558281 0.29 0.418281 0.43C0.278281 0.57 0.188281 0.71 0.128281 0.88C0.0682812 1.04 0.0282812 1.22 0.00828125 1.49C-0.00171875 1.76 -0.0117188 1.84 -0.0117188 2.53C-0.0117188 3.22 -0.0117188 3.3 0.00828125 3.57C0.0182812 3.84 0.0582813 4.02 0.128281 4.18C0.188281 4.35 0.278281 4.49 0.418281 4.63C0.558281 4.77 0.698281 4.86 0.868281 4.92C1.02828 4.98 1.20828 5.02 1.47828 5.04C1.74828 5.05 1.82828 5.06 2.51828 5.06C3.20828 5.06 3.28828 5.06 3.55828 5.04C3.82828 5.03 4.00828 4.99 4.16828 4.92C4.33828 4.86 4.47828 4.77 4.61828 4.63C4.75828 4.49 4.84828 4.35 4.90828 4.18C4.96828 4.02 5.00828 3.84 5.02828 3.57C5.03828 3.3 5.04828 3.22 5.04828 2.53C5.04828 1.84 5.04828 1.76 5.02828 1.49C5.01828 1.22 4.97828 1.04 4.90828 0.88C4.84828 0.71 4.75828 0.57 4.61828 0.43C4.47828 0.29 4.33828 0.2 4.16828 0.14C4.00828 0.08 3.82828 0.04 3.55828 0.02C3.28828 0.01 3.20828 0 2.51828 0Z" fill="white"/>
<path d="M2.52047 1.22021C1.81047 1.22021 1.23047 1.80021 1.23047 2.51021C1.23047 3.22021 1.81047 3.80021 2.52047 3.80021C3.23047 3.80021 3.81047 3.22021 3.81047 2.51021C3.81047 1.80021 3.23047 1.22021 2.52047 1.22021ZM2.52047 3.35021C2.06047 3.35021 1.68047 2.97021 1.68047 2.51021C1.68047 2.05021 2.06047 1.67021 2.52047 1.67021C2.98047 1.67021 3.36047 2.05021 3.36047 2.51021C3.36047 2.97021 2.98047 3.35021 2.52047 3.35021Z" fill="white"/>
<path d="M4.15859 1.17012C4.15859 1.34012 4.01859 1.47012 3.85859 1.47012C3.69859 1.47012 3.55859 1.33012 3.55859 1.17012C3.55859 1.01012 3.69859 0.870117 3.85859 0.870117C4.01859 0.870117 4.15859 1.01012 4.15859 1.17012Z" fill="white"/>
</g>
<defs>
<clipPath id="clip0_1184_1471">
<rect width="5.03" height="5.03" fill="white"/>
</clipPath>
</defs>
</svg>
