<svg width="5" height="5" viewBox="0 0 5 5" fill="none" xmlns="http://www.w3.org/2000/svg">
<g clip-path="url(#clip0_1184_1482)">
<path d="M1.03984 1.53027H0.0898438V4.60027H1.03984V1.53027Z" fill="white"/>
<path d="M0.56 1.13023C0.87 1.13023 1.12 0.880234 1.12 0.560234C1.12 0.240234 0.87 -0.00976562 0.56 -0.00976562C0.25 -0.00976562 0 0.240234 0 0.560234C0 0.880234 0.25 1.13023 0.56 1.13023Z" fill="white"/>
<path d="M2.56016 2.98994C2.56016 2.55994 2.76016 2.29994 3.14016 2.29994C3.49016 2.29994 3.66016 2.54994 3.66016 2.98994V4.59994H4.61016V2.65994C4.61016 1.83994 4.14016 1.43994 3.49016 1.43994C2.84016 1.43994 2.57016 1.94994 2.57016 1.94994V1.53994H1.66016V4.60994H2.57016V2.99994L2.56016 2.98994Z" fill="white"/>
</g>
<defs>
<clipPath id="clip0_1184_1482">
<rect width="4.6" height="4.6" fill="white"/>
</clipPath>
</defs>
</svg>
