<svg width="5" height="8" viewBox="0 0 5 8" fill="none" xmlns="http://www.w3.org/2000/svg">
<g clip-path="url(#clip0_1184_1498)">
<path d="M3.57 0H0.53C0.24 0 0 0.24 0 0.53V6.7C0 6.99 0.24 7.23 0.53 7.23H3.57C3.86 7.23 4.1 6.99 4.1 6.7V0.53C4.1 0.24 3.86 0 3.57 0ZM0.24 0.96H3.86V5.54H0.24V0.96ZM0.53 0.24H3.57C3.73 0.24 3.86 0.37 3.86 0.53V0.72H0.24V0.53C0.24 0.37 0.37 0.24 0.53 0.24ZM3.57 6.99H0.53C0.37 6.99 0.24 6.86 0.24 6.7V5.78H3.86V6.7C3.86 6.86 3.73 6.99 3.57 6.99Z" fill="#F7F6F3"/>
<path d="M2.05031 5.8999C1.78031 5.8999 1.57031 6.1199 1.57031 6.3799C1.57031 6.6399 1.79031 6.8599 2.05031 6.8599C2.31031 6.8599 2.53031 6.6399 2.53031 6.3799C2.53031 6.1199 2.31031 5.8999 2.05031 5.8999ZM2.05031 6.6299C1.92031 6.6299 1.81031 6.5199 1.81031 6.3899C1.81031 6.2599 1.92031 6.1499 2.05031 6.1499C2.18031 6.1499 2.29031 6.2599 2.29031 6.3899C2.29031 6.5199 2.18031 6.6299 2.05031 6.6299Z" fill="#F7F6F3"/>
<path d="M1.56922 0.599863H2.04922C2.11922 0.599863 2.16922 0.549863 2.16922 0.479863C2.16922 0.409863 2.11922 0.359863 2.04922 0.359863H1.56922C1.49922 0.359863 1.44922 0.409863 1.44922 0.479863C1.44922 0.549863 1.49922 0.599863 1.56922 0.599863Z" fill="#F7F6F3"/>
<path d="M2.40906 0.599863H2.52906C2.59906 0.599863 2.64906 0.549863 2.64906 0.479863C2.64906 0.409863 2.59906 0.359863 2.52906 0.359863H2.40906C2.33906 0.359863 2.28906 0.409863 2.28906 0.479863C2.28906 0.549863 2.33906 0.599863 2.40906 0.599863Z" fill="#F7F6F3"/>
<path d="M2.27859 1.33008H1.80859C1.66859 1.33008 1.55859 1.44008 1.55859 1.58008V2.05008C1.55859 2.19008 1.66859 2.30008 1.80859 2.30008H2.27859C2.41859 2.30008 2.52859 2.19008 2.52859 2.05008V1.58008C2.52859 1.44008 2.41859 1.33008 2.27859 1.33008ZM2.28859 2.05008H1.80859V1.57008H2.28859V2.05008Z" fill="#F7F6F3"/>
<path d="M1.20047 1.33008H0.730469C0.590469 1.33008 0.480469 1.44008 0.480469 1.58008V2.05008C0.480469 2.19008 0.590469 2.30008 0.730469 2.30008H1.20047C1.34047 2.30008 1.45047 2.19008 1.45047 2.05008V1.58008C1.45047 1.44008 1.34047 1.33008 1.20047 1.33008ZM1.21047 2.05008H0.730469V1.57008H1.21047V2.05008Z" fill="#F7F6F3"/>
<path d="M3.36844 1.33008H2.89844C2.75844 1.33008 2.64844 1.44008 2.64844 1.58008V2.05008C2.64844 2.19008 2.75844 2.30008 2.89844 2.30008H3.36844C3.50844 2.30008 3.61844 2.19008 3.61844 2.05008V1.58008C3.61844 1.44008 3.50844 1.33008 3.36844 1.33008ZM3.36844 2.05008H2.88844V1.57008H3.36844V2.05008Z" fill="#F7F6F3"/>
<path d="M2.27859 2.41016H1.80859C1.66859 2.41016 1.55859 2.52016 1.55859 2.66016V3.13016C1.55859 3.27016 1.66859 3.38016 1.80859 3.38016H2.27859C2.41859 3.38016 2.52859 3.27016 2.52859 3.13016V2.66016C2.52859 2.52016 2.41859 2.41016 2.27859 2.41016ZM2.28859 3.13016H1.80859V2.65016H2.28859V3.13016Z" fill="#F7F6F3"/>
<path d="M1.20047 2.41016H0.730469C0.590469 2.41016 0.480469 2.52016 0.480469 2.66016V3.13016C0.480469 3.27016 0.590469 3.38016 0.730469 3.38016H1.20047C1.34047 3.38016 1.45047 3.27016 1.45047 3.13016V2.66016C1.45047 2.52016 1.34047 2.41016 1.20047 2.41016ZM1.21047 3.13016H0.730469V2.65016H1.21047V3.13016Z" fill="#F7F6F3"/>
<path d="M3.36844 2.41016H2.89844C2.75844 2.41016 2.64844 2.52016 2.64844 2.66016V3.13016C2.64844 3.27016 2.75844 3.38016 2.89844 3.38016H3.36844C3.50844 3.38016 3.61844 3.27016 3.61844 3.13016V2.66016C3.61844 2.52016 3.50844 2.41016 3.36844 2.41016ZM3.36844 3.13016H2.88844V2.65016H3.36844V3.13016Z" fill="#F7F6F3"/>
<path d="M2.27859 3.49023H1.80859C1.66859 3.49023 1.55859 3.60023 1.55859 3.74023V4.21023C1.55859 4.35023 1.66859 4.46023 1.80859 4.46023H2.27859C2.41859 4.46023 2.52859 4.35023 2.52859 4.21023V3.74023C2.52859 3.60023 2.41859 3.49023 2.27859 3.49023ZM2.28859 4.21023H1.80859V3.73023H2.28859V4.21023Z" fill="#F7F6F3"/>
<path d="M1.20047 3.49023H0.730469C0.590469 3.49023 0.480469 3.60023 0.480469 3.74023V4.21023C0.480469 4.35023 0.590469 4.46023 0.730469 4.46023H1.20047C1.34047 4.46023 1.45047 4.35023 1.45047 4.21023V3.74023C1.45047 3.60023 1.34047 3.49023 1.20047 3.49023ZM1.21047 4.21023H0.730469V3.73023H1.21047V4.21023Z" fill="#F7F6F3"/>
<path d="M3.36844 3.49023H2.89844C2.75844 3.49023 2.64844 3.60023 2.64844 3.74023V4.21023C2.64844 4.35023 2.75844 4.46023 2.89844 4.46023H3.36844C3.50844 4.46023 3.61844 4.35023 3.61844 4.21023V3.74023C3.61844 3.60023 3.50844 3.49023 3.36844 3.49023ZM3.36844 4.21023H2.88844V3.73023H3.36844V4.21023Z" fill="#F7F6F3"/>
</g>
<defs>
<clipPath id="clip0_1184_1498">
<rect width="4.1" height="7.23" fill="white"/>
</clipPath>
</defs>
</svg>
