<svg width="6" height="6" viewBox="0 0 6 6" fill="none" xmlns="http://www.w3.org/2000/svg">
<g clip-path="url(#clip0_1184_1488)">
<path d="M2.68 0C1.2 0 0 1.2 0 2.68C0 4.16 1.2 5.36 2.68 5.36C4.16 5.36 5.36 4.16 5.36 2.68C5.36 1.2 4.16 0 2.68 0ZM3.92 3.88C3.87 3.96 3.77 3.99 3.69 3.93C3.06 3.54 2.27 3.46 1.33 3.68C1.24 3.71 1.16 3.64 1.13 3.56C1.1 3.47 1.17 3.39 1.25 3.36C2.27 3.13 3.15 3.23 3.85 3.66C3.94 3.7 3.96 3.81 3.92 3.89V3.88ZM4.24 3.14C4.17 3.23 4.05 3.27 3.96 3.21C3.24 2.77 2.14 2.63 1.29 2.9C1.18 2.93 1.06 2.87 1.04 2.77C1.01 2.66 1.07 2.54 1.17 2.52C2.15 2.22 3.36 2.37 4.19 2.88C4.27 2.92 4.31 3.05 4.24 3.15V3.14ZM4.27 2.39C3.41 1.88 1.98 1.83 1.16 2.08C1.03 2.12 0.89 2.04 0.85 1.92C0.81 1.79 0.89 1.65 1.01 1.61C1.96 1.33 3.53 1.38 4.52 1.97C4.64 2.04 4.68 2.2 4.61 2.32C4.54 2.41 4.38 2.45 4.26 2.39H4.27Z" fill="white"/>
</g>
<defs>
<clipPath id="clip0_1184_1488">
<rect width="5.37" height="5.37" fill="white"/>
</clipPath>
</defs>
</svg>
